<?xml version="1.0" encoding="UTF-8" standalone="no"?>
<svg
   xmlns:dc="http://purl.org/dc/elements/1.1/"
   xmlns:cc="http://creativecommons.org/ns#"
   xmlns:rdf="http://www.w3.org/1999/02/22-rdf-syntax-ns#"
   xmlns:svg="http://www.w3.org/2000/svg"
   xmlns="http://www.w3.org/2000/svg"
   xmlns:sodipodi="http://sodipodi.sourceforge.net/DTD/sodipodi-0.dtd"
   xmlns:inkscape="http://www.inkscape.org/namespaces/inkscape"
   id="Layer_1"
   viewBox="0 0 109.37194 124.99651"
   version="1.1"
   sodipodi:docname="discord.svg"
   width="109.37194"
   height="124.99651"
   inkscape:version="0.92.1 r15371">
  <metadata
     id="metadata4523">
    <rdf:RDF>
      <cc:Work
         rdf:about="">
        <dc:format>image/svg+xml</dc:format>
        <dc:type
           rdf:resource="http://purl.org/dc/dcmitype/StillImage" />
      </cc:Work>
    </rdf:RDF>
  </metadata>
  <defs
     id="defs4521" />
  <sodipodi:namedview
     pagecolor="#ffffff"
     bordercolor="#666666"
     borderopacity="1"
     objecttolerance="10"
     gridtolerance="10"
     guidetolerance="10"
     inkscape:pageopacity="0"
     inkscape:pageshadow="2"
     inkscape:window-width="1920"
     inkscape:window-height="1017"
     id="namedview4519"
     showgrid="false"
     inkscape:zoom="16"
     inkscape:cx="61.115081"
     inkscape:cy="15.866613"
     inkscape:window-x="-8"
     inkscape:window-y="-8"
     inkscape:window-maximized="1"
     inkscape:current-layer="Layer_1" />
  <style
     id="style4512">.st0{fill:#000000;}</style>
  <path
     class="st0"
     d="m 44.278787,48.241034 c -3.2774,0 -5.864821,2.874912 -5.864821,6.382306 0,3.507393 2.644919,6.382306 5.864821,6.382306 3.277401,0 5.864822,-2.874913 5.864822,-6.382306 0.0575,-3.507394 -2.587421,-6.382306 -5.864822,-6.382306 z m 20.986863,0 c -3.277401,0 -5.864822,2.874912 -5.864822,6.382306 0,3.507393 2.644919,6.382306 5.864822,6.382306 3.2774,0 5.864821,-2.874913 5.864821,-6.382306 0,-3.507394 -2.587421,-6.382306 -5.864821,-6.382306 z"
     id="path4514"
     inkscape:connector-curvature="0"
     style="fill:#FFFFFF;stroke-width:0.57498252" />
  <path
     class="st0"
     d="M 93.2098,0 H 16.162142 C 9.6648385,0 4.3749997,5.289839 4.3749997,11.84464 v 77.737635 c 0,6.554805 5.2898388,11.844645 11.7871423,11.844645 H 81.36516 l -3.047407,-10.637175 7.359777,6.84229 6.957288,6.439815 12.362122,10.92466 V 11.84464 C 104.99694,5.289839 99.707097,0 93.2098,0 Z M 71.015475,75.092715 c 0,0 -2.069937,-2.472422 -3.794885,-4.657356 7.532271,-2.127435 10.407184,-6.842292 10.407184,-6.842292 -2.357429,1.552453 -4.59986,2.64492 -6.612299,3.392397 -2.874913,1.207463 -5.634829,2.012439 -8.337247,2.472425 -5.519832,1.034968 -10.579678,0.747477 -14.892047,-0.0575 -3.277401,-0.632481 -6.094815,-1.552453 -8.452243,-2.472425 -1.32246,-0.517484 -2.759917,-1.149965 -4.197373,-1.954941 -0.172495,-0.114996 -0.344989,-0.172495 -0.517484,-0.287491 -0.114997,-0.0575 -0.172495,-0.114997 -0.229993,-0.172495 -1.034969,-0.574982 -1.609951,-0.97747 -1.609951,-0.97747 0,0 2.759916,4.59986 10.062194,6.784794 -1.724948,2.184933 -3.852383,4.772354 -3.852383,4.772354 -12.707114,-0.402489 -17.536967,-8.739734 -17.536967,-8.739734 0,-18.514437 8.279748,-33.521481 8.279748,-33.521481 8.279749,-6.209808 16.157009,-6.037314 16.157009,-6.037314 l 0.574983,0.68998 c -10.349686,2.989909 -15.122041,7.532271 -15.122041,7.532271 0,0 1.264962,-0.689979 3.392397,-1.66745 6.152313,-2.702418 11.039665,-3.449895 13.052104,-3.62239 0.344989,-0.0575 0.63248,-0.114996 0.97747,-0.114996 3.507393,-0.459986 7.474773,-0.574983 11.614647,-0.114997 5.462334,0.632481 11.327156,2.242432 17.306974,5.519833 0,0 -4.542362,-4.312369 -14.317065,-7.302278 l 0.804976,-0.919973 c 0,0 7.87726,-0.172494 16.157009,6.037317 0,0 8.279748,15.007044 8.279748,33.521481 0,0 -4.887351,8.337244 -17.594465,8.739734 z"
     id="path4516"
     inkscape:connector-curvature="0"
     style="fill:#FFFFFF;stroke-width:0.57498252" />
</svg>
