<?xml version="1.0" encoding="UTF-8" standalone="no"?>
<svg
   xmlns:dc="http://purl.org/dc/elements/1.1/"
   xmlns:cc="http://creativecommons.org/ns#"
   xmlns:rdf="http://www.w3.org/1999/02/22-rdf-syntax-ns#"
   xmlns:svg="http://www.w3.org/2000/svg"
   xmlns="http://www.w3.org/2000/svg"
   xmlns:sodipodi="http://sodipodi.sourceforge.net/DTD/sodipodi-0.dtd"
   xmlns:inkscape="http://www.inkscape.org/namespaces/inkscape"
   viewBox="0 0 169.62343 61.567844"
   id="r6db_logo_new"
   width="169.62343"
   height="61.567844"
   version="1.1"
   sodipodi:docname="r6rutils.svg"
   inkscape:version="0.92.1 r15371">
  <metadata
     id="metadata6201">
    <rdf:RDF>
      <cc:Work
         rdf:about="">
        <dc:format>image/svg+xml</dc:format>
        <dc:type
           rdf:resource="http://purl.org/dc/dcmitype/StillImage" />
        <dc:title></dc:title>
      </cc:Work>
    </rdf:RDF>
  </metadata>
  <defs
     id="defs6199" />
  <sodipodi:namedview
     pagecolor="#ffffff"
     bordercolor="#666666"
     borderopacity="1"
     objecttolerance="10"
     gridtolerance="10"
     guidetolerance="10"
     inkscape:pageopacity="0"
     inkscape:pageshadow="2"
     inkscape:window-width="1920"
     inkscape:window-height="1017"
     id="namedview6197"
     showgrid="false"
     inkscape:measure-start="0,0"
     inkscape:measure-end="0,0"
     inkscape:zoom="3.3370146"
     inkscape:cx="115.79455"
     inkscape:cy="71.861192"
     inkscape:window-x="-8"
     inkscape:window-y="-8"
     inkscape:window-maximized="1"
     inkscape:current-layer="r6db_logo_new" />
  <g
     id="g6194"
     style="fill:#ffffff;fill-rule:evenodd"
     transform="scale(0.50055158)">
    <path
       d="m 14.695,69.109 v 30.22 H 0 V 22.783 h 15.41 c 7.186,0 17.587,0.308 21.036,4.095 1.646,1.808 3.23,3.633 4.242,6.438 1.106,3.07 1.562,7.21 1.562,11.24 0,4.504 -0.973,12.993 -2.685,16.501 -1.712,3.508 -6.468,6.41 -6.468,6.41 0,0 6.741,26.838 9.153,31.864 H 26.98 L 18.813,69.11 h -4.118 z m 0.04,-11.372 h 3.33 c 3.265,0 6.236,-0.083 8.102,-2.136 1.866,-2.053 1.46,-5.802 1.46,-9.467 0,-3.63 0.275,-7.934 -1.46,-9.612 -1.735,-1.678 -4.77,-1.984 -8.101,-1.984 h -3.332 v 23.2 z"
       id="path6190"
       style="fill:#ffffff"
       inkscape:connector-curvature="0"
       sodipodi:nodetypes="ccccsccsscccccccsssssccc" />
    <path
       d="M 8.823,22.782 H 5.782 l 18.035,8.644 c 0,0 3.81,-3.75 3.81,14.079 V 99.33 h 9.337 C 37.149,98.395 37.913,94.163 36.925,92.278 35.99,90.492 34.706,89.096 34.207,86.21 33.225,80.542 33.154,73.92 33.154,66.96 V 49.364 c 0,-4.661 -0.276,-7.424 0.552,-12.267 C 34.534,32.254 5.879,22.808 5.879,22.808 Z m 54.788,0 H 79.196 V 99.33 H 60.618 c 4.954,-0.446 9.45,-1.821 12.342,-5.411 3.77,-4.68 4.413,-12.045 4.413,-20.067 0,-4.573 -0.178,-9.566 -1.077,-13.981 -0.563,-2.77 -1.429,-5.522 -2.65,-7.148 -3.171,-4.217 -7.125,-5.82 -13.353,-5.82 -10.694,0 -13.421,4.186 -13.421,4.186 0,-7.19 -0.328,-9.792 1.1,-13.015 1.428,-3.223 3.47,-3.76 6.372,-3.76 2.9,0 6.622,0.761 7.676,6.101 L 76.296,37.098 C 75.304,29.678 69.755,24.253 63.611,22.782 Z m -7.96,65.278 c 2.827,0 4.651,-0.754 6.165,-3.018 1.514,-2.264 1.916,-6.394 1.916,-10.582 0,-3.643 -0.027,-11.102 -1.44,-13.195 -1.415,-2.094 -4.549,-2.626 -7.406,-2.626 -2.685,0 -4.341,0.549 -6.241,2.626 -1.9,2.076 -1.31,8.827 -1.31,11.585 0,4.051 0.038,9.4 1.823,12.192 1.785,2.791 3.75,3.018 6.492,3.018 z M 86.5,0 h 3.431 V 123 H 86.5 Z"
       id="path6192"
       style="fill:#ffffff"
       inkscape:connector-curvature="0" />
  </g>
  <text
     xml:space="preserve"
     style="font-style:normal;font-variant:normal;font-weight:bold;font-stretch:normal;font-size:25.51781273px;line-height:1.25;font-family:ScoutCond;-inkscape-font-specification:'ScoutCond Bold';letter-spacing:0px;word-spacing:0px;fill:#ffffff;fill-opacity:1;stroke:none;stroke-width:0.63794529"
     x="47.021191"
     y="49.755062"
     id="text6463"><tspan
       sodipodi:role="line"
       id="tspan6461"
       x="47.021191"
       y="49.755062"
       style="font-size:61.24274826px;fill:#ffffff;stroke-width:0.63794529">RUTILS</tspan></text>
</svg>
