<?xml version="1.0" encoding="UTF-8" standalone="no"?>
<!-- Created with Inkscape (http://www.inkscape.org/) -->

<svg
   xmlns:dc="http://purl.org/dc/elements/1.1/"
   xmlns:cc="http://creativecommons.org/ns#"
   xmlns:rdf="http://www.w3.org/1999/02/22-rdf-syntax-ns#"
   xmlns:svg="http://www.w3.org/2000/svg"
   xmlns="http://www.w3.org/2000/svg"
   xmlns:sodipodi="http://sodipodi.sourceforge.net/DTD/sodipodi-0.dtd"
   xmlns:inkscape="http://www.inkscape.org/namespaces/inkscape"
   width="121.35434"
   height="125.48224"
   id="svg2"
   version="1.1"
   inkscape:version="0.92.1 r15371"
   sodipodi:docname="ubisoft.svg"
   viewBox="0 0 113.7697 117.6396">
  <defs
     id="defs4" />
  <sodipodi:namedview
     id="base"
     pagecolor="#ffffff"
     bordercolor="#666666"
     borderopacity="1.0"
     inkscape:pageopacity="0.0"
     inkscape:pageshadow="2"
     inkscape:zoom="8"
     inkscape:cx="96.123428"
     inkscape:cy="37.389969"
     inkscape:document-units="px"
     inkscape:current-layer="layer1"
     showgrid="false"
     fit-margin-left="0.5"
     fit-margin-bottom="0.5"
     fit-margin-top="0.5"
     fit-margin-right="0.5"
     inkscape:window-width="1920"
     inkscape:window-height="1017"
     inkscape:window-x="-8"
     inkscape:window-y="-8"
     inkscape:window-maximized="1"
     inkscape:snap-grids="true">
    <inkscape:grid
       type="xygrid"
       id="grid2996"
       empspacing="5"
       visible="true"
       enabled="true"
       snapvisiblegridlinesonly="true"
       originx="-424.20491"
       originy="1366.2432"
       spacingx="1"
       spacingy="0.99999997" />
  </sodipodi:namedview>
  <metadata
     id="metadata7">
    <rdf:RDF>
      <cc:Work
         rdf:about="">
        <dc:format>image/svg+xml</dc:format>
        <dc:type
           rdf:resource="http://purl.org/dc/dcmitype/StillImage" />
        <dc:title />
      </cc:Work>
    </rdf:RDF>
  </metadata>
  <g
     inkscape:label="Layer 1"
     inkscape:groupmode="layer"
     id="layer1"
     transform="translate(-424.20483,-2300.9659)">
    <path
       style="fill:#FFFFFF;fill-opacity:1;stroke:none;stroke-width:0.16177584"
       d="m 477.8423,2301.4347 c -33.45496,0 -47.89547,29.7786 -47.89547,29.7786 l 4.2507,3.0428 c 0,0 -5.34905,10.1723 -5.20104,23.2198 0,26.6346 21.20201,51.7248 52.41304,51.7248 28.35413,0 51.77636,-23.0784 51.77636,-51.6594 0,-37.2762 -28.90631,-56.1066 -55.34359,-56.1066 z m 0.29024,9.0865 c 26.13832,0 46.42085,21.0633 46.42085,45.5502 0,25.9576 -19.52299,44.0099 -42.27312,44.0099 -16.74341,0 -31.84763,-12.7507 -31.84763,-30.2325 0,-10.0972 5.36672,-17.1368 11.38053,-20.8885 l 0.88009,0.9551 c -1.64583,1.2878 -6.33863,8.8261 -6.33863,16.2352 0,13.7544 10.78635,23.2804 24.37609,23.2804 17.31102,0 28.85619,-14.7647 28.85619,-31.9083 0,-19.9464 -17.60661,-36.8801 -38.79481,-36.8801 -11.71933,0 -21.6661,5.0399 -27.38156,9.4891 l -0.88946,-0.8051 c 7.47752,-11.5292 20.42649,-18.8054 35.61146,-18.8054 z m -7.79923,19.0815 c 13.52113,0 26.72214,8.945 30.01721,21.6423 l -1.19846,0.454 c -5.91639,-7.8128 -15.61072,-14.2878 -27.05854,-14.2878 -21.06533,0 -32.12815,19.142 -30.50404,35.1294 l -1.24057,0.4542 c 0,0 -2.32669,-5.1338 -2.32669,-11.2214 0,-17.6288 14.47709,-32.1707 32.31109,-32.1707 z m 8.9368,22.1242 c 6.40159,0 11.52096,5.1887 11.52096,11.3479 0,5.0971 -3.27231,8.1176 -3.27231,8.1176 l 3.8762,2.7105 c 0,0 -3.84372,6.0345 -11.68946,6.0345 -7.50508,0 -14.14253,-6.0576 -14.14253,-14.2035 0,-8.3937 7.21988,-14.007 13.70714,-14.007 z"
       id="path3049"
       inkscape:connector-curvature="0" />
  </g>
</svg>
